<svg width="46" height="46" viewBox="0 0 46 46" fill="none" xmlns="http://www.w3.org/2000/svg">
<mask id="mask0_602_606" style="mask-type:luminance" maskUnits="userSpaceOnUse" x="3" y="3" width="40" height="40">
<path d="M3.30682 3.30682H42.6943V42.6943H3.30682V3.30682Z" fill="white"/>
</mask>
<g mask="url(#mask0_602_606)">
<path fill-rule="evenodd" clip-rule="evenodd" d="M23.0075 3.30682C41.0955 3.30682 42.6943 5.01685 42.6943 23.0075C42.6943 40.9843 41.0955 42.6943 23.0075 42.6943C4.91952 42.6943 3.30682 40.9843 3.30682 23.0075C3.30682 5.01685 4.91952 3.30682 23.0075 3.30682Z" fill="#690EFC"/>
</g>
<path fill-rule="evenodd" clip-rule="evenodd" d="M23.0075 34.8669C20.1018 34.8669 17.3211 33.7962 15.18 31.836C13.1086 29.9592 11.9129 27.4982 11.9129 25.0791C11.9129 22.2985 13.4977 19.7263 16.1393 18.058C15.3053 19.1841 14.888 20.6023 14.7907 22.0203C14.763 22.382 14.9577 22.7155 15.2912 22.8546C15.6111 22.9936 16.0004 22.9102 16.2366 22.6461C16.5983 22.2567 17.1544 21.8397 17.5993 21.5616C18.628 20.9082 19.7959 20.505 21.0055 20.505C21.0193 20.505 21.0334 20.505 21.0472 20.505C21.0055 22.0344 21.3392 23.7444 22.4096 24.8427C22.5626 25.0095 22.7711 25.093 23.0075 25.093C23.23 25.093 23.4385 25.0095 23.6053 24.8427C24.6619 23.7444 24.9957 22.0344 24.9539 20.505C24.9678 20.505 24.9818 20.505 24.9957 20.505C26.2192 20.505 27.3731 20.9082 28.4019 21.5477C28.8468 21.8397 29.4029 22.2567 29.7645 22.6461C30.0147 22.9102 30.39 22.9936 30.7238 22.8546C31.0434 22.7155 31.252 22.382 31.2243 22.0203C31.1131 20.6023 30.6959 19.1841 29.8618 18.058C32.5173 19.7263 34.0882 22.2985 34.0882 25.0791C34.0882 27.4843 32.9066 29.9451 30.8349 31.836C28.68 33.7962 25.8993 34.8669 23.0075 34.8669ZM23.0075 33.2124C22.8546 33.2124 22.7295 33.0872 22.7295 32.9343C22.7295 32.7814 22.8546 32.6563 23.0075 32.6563C25.3571 32.6563 27.6094 31.7942 29.3473 30.2094C30.5708 29.0832 31.4328 27.7067 31.7386 26.3025C31.7804 26.1496 31.9333 26.0523 32.0723 26.094C32.2253 26.1219 32.3226 26.2748 32.2809 26.4277C31.9471 27.9293 31.0296 29.4169 29.7227 30.6126C27.8736 32.2947 25.4962 33.2124 23.0075 33.2124Z" fill="white"/>
<path fill-rule="evenodd" clip-rule="evenodd" d="M23.0075 24.5369C22.924 24.5369 22.8546 24.509 22.799 24.4534C21.4781 23.1048 21.5616 20.7829 21.631 19.9766C21.4225 19.9489 21.214 19.9489 21.0055 19.9489C17.9607 19.9489 15.8473 22.2567 15.8196 22.2706C15.7361 22.3679 15.6111 22.3958 15.4999 22.3402C15.4026 22.2985 15.333 22.1873 15.333 22.0621C15.5694 18.9338 17.1544 17.5993 18.0024 17.0988L14.5961 15.3608C14.4987 15.3191 14.4431 15.2079 14.4572 15.0827C14.471 14.9715 14.5545 14.8742 14.6657 14.8463C15.625 14.6101 16.6121 14.4849 17.6131 14.4849C19.5595 14.4849 21.1863 14.9436 22.2011 15.3191C22.1455 15.7502 22.1177 16.2366 22.1177 16.7233C21.9647 16.6398 21.8257 16.5425 21.6868 16.4174C21.3392 16.1116 20.8108 16.1393 20.505 16.4869C20.1991 16.8206 20.2268 17.349 20.5744 17.6549C21.2419 18.2665 22.1177 18.6003 23.0213 18.6003C23.0631 18.6003 23.0631 18.6003 23.0771 18.6003C23.9668 18.5862 24.8148 18.2527 25.4823 17.6549C25.8299 17.349 25.8576 16.8206 25.5379 16.4869C25.2321 16.1393 24.7037 16.1116 24.3699 16.4174C24.2032 16.5704 24.0085 16.6956 23.8 16.7789C23.7861 16.334 23.8138 15.889 23.8556 15.4859C23.8694 15.4164 23.8835 15.3468 23.8835 15.2912C24.8983 14.9159 26.4972 14.4849 28.388 14.4849C29.389 14.4849 30.39 14.6101 31.3493 14.8463C31.4607 14.8742 31.544 14.9715 31.558 15.0827C31.5718 15.2079 31.5022 15.3191 31.4051 15.3608L27.9987 17.0988C28.8468 17.5993 30.4318 18.9338 30.6682 22.0621C30.682 22.1873 30.6126 22.2985 30.5012 22.3402C30.39 22.3958 30.265 22.3679 30.1815 22.2706C30.1677 22.2567 28.0404 19.9489 24.9957 19.9489C24.7871 19.9489 24.5786 19.9489 24.3699 19.9766C24.4396 20.7829 24.523 23.1048 23.2021 24.4534C23.1466 24.509 23.0771 24.5369 23.0075 24.5369Z" fill="white"/>
<path fill-rule="evenodd" clip-rule="evenodd" d="M23.0213 18.0442C22.8963 18.0442 22.7711 17.9469 22.7572 17.8078C22.7295 17.6408 22.1873 13.4977 24.5369 11.2178C24.648 11.1064 24.8148 11.1204 24.9262 11.2178C25.0374 11.3289 25.0374 11.5096 24.9262 11.6209C22.7851 13.7064 23.2995 17.6966 23.2995 17.7382C23.3273 17.8911 23.216 18.0302 23.0631 18.0442C23.0492 18.0442 23.0354 18.0442 23.0213 18.0442Z" fill="white"/>
<path fill-rule="evenodd" clip-rule="evenodd" d="M23.0213 18.0442C22.2567 18.0442 21.5198 17.7661 20.936 17.2517C20.8246 17.1403 20.8246 16.9736 20.922 16.8624C21.0193 16.7372 21.2001 16.7372 21.3113 16.8345C21.7841 17.2656 22.3958 17.4879 23.0213 17.4879C23.6609 17.4879 24.2726 17.2656 24.7454 16.8345C24.8566 16.7372 25.0235 16.7372 25.1347 16.8624C25.232 16.9736 25.232 17.1403 25.1068 17.2517C24.5369 17.7661 23.8 18.0442 23.0213 18.0442Z" fill="white"/>
</svg>
